<svg width="50" height="44" viewBox="0 0 50 44" fill="none" xmlns="http://www.w3.org/2000/svg">
<mask id="mask0_1_41" style="mask-type:luminance" maskUnits="userSpaceOnUse" x="0" y="0" width="50" height="44">
<path d="M0.890503 0.313988H49.4773V43.0104H0.890503V0.313988Z" fill="white"/>
</mask>
<g mask="url(#mask0_1_41)">
<path fill-rule="evenodd" clip-rule="evenodd" d="M35.9721 6.46569H14.5281C12.79 6.46569 12.1485 7.10714 12.1485 8.84606V29.8289C12.1485 30.0257 12.1564 30.2084 12.1738 30.3778C12.2134 30.7574 12.2209 31.1252 12.5739 31.5439C12.6084 31.585 12.9688 31.8532 12.9688 31.8532C13.1626 31.9482 13.295 32.0183 13.5136 32.1062L24.073 36.5302C24.6211 36.7815 24.8504 36.8795 25.2485 36.8716V36.8716C25.249 36.8716 25.2495 36.8716 25.2501 36.8716C25.2506 36.8716 25.2511 36.8716 25.2516 36.8716V36.8716C25.6498 36.8795 25.879 36.7815 26.4272 36.5302L36.9865 32.1062C37.2052 32.0183 37.3375 31.9482 37.5314 31.8532C37.5314 31.8532 37.8918 31.585 37.9263 31.5439C38.2793 31.1252 38.2867 30.7574 38.3263 30.3778C38.3437 30.2084 38.3517 30.0257 38.3517 29.8289V8.84606C38.3517 7.10714 37.7101 6.46569 35.9721 6.46569Z" fill="white"/>
<path d="M34.5358 27.5612L34.5309 27.6096L34.5261 27.6628L34.5164 27.7112L34.5019 27.7596L34.4925 27.8031L34.478 27.8516L34.4586 27.8951L34.4393 27.9339L34.4202 27.9774L34.396 28.0161L34.3718 28.0549L34.3431 28.0936L34.3188 28.1323L34.2901 28.1661L34.2562 28.2L34.2274 28.2291L34.1888 28.263L34.1551 28.292L34.1164 28.3211L34.078 28.3449L34.0395 28.374L33.996 28.3982L33.9527 28.4175L33.9094 28.4417L33.861 28.4611L33.8129 28.4805L33.7648 28.4949L33.7167 28.5095L33.6731 28.524L33.625 28.5337L33.5818 28.5434L33.5385 28.553L33.4901 28.5628L33.4419 28.5676L33.3987 28.5724L33.3503 28.5773L33.2974 28.5821L33.2492 28.5869H33.2011H33.1481H33.0949H33.0468L32.9987 28.5821H32.9457L32.8976 28.5773L32.8492 28.5724L32.7963 28.5676L32.7482 28.5579L32.7001 28.553L32.6516 28.5434L32.6035 28.5337L32.5554 28.524L32.5073 28.5143L32.4589 28.4999L32.4156 28.4901L32.3675 28.4756L32.3194 28.4611L32.2758 28.4417L32.2277 28.4272L32.1844 28.4127L32.1363 28.3933L32.0928 28.374L32.0495 28.3546L32.0062 28.3307L31.9627 28.3113L31.9194 28.2871L31.8809 28.263L31.8374 28.2387L31.7989 28.2145L31.7602 28.1904L31.7218 28.1613L31.6834 28.1323L31.6446 28.1032L31.6062 28.0742L31.5723 28.0451L31.5339 28.0113L31.5629 27.9726L31.5965 27.9387L31.6255 27.8999L31.6592 27.8612L31.6882 27.8274L31.7169 27.7887L31.7508 27.7499L31.7796 27.716L31.8135 27.6773L31.8422 27.6434L31.8761 27.6047L31.9049 27.566L31.9339 27.5321L31.9675 27.4934L31.9965 27.4547L32.0301 27.4208L32.0591 27.3821L32.0976 27.4111L32.1409 27.4402L32.1796 27.4692L32.2229 27.4983L32.2616 27.5225L32.3049 27.5514L32.3433 27.5757L32.3869 27.595L32.4253 27.6193L32.4686 27.6386L32.5121 27.658L32.5554 27.6773L32.5987 27.6919L32.6422 27.7112L32.6903 27.7257L32.7385 27.7402L32.7817 27.7548L32.8302 27.7645L32.8783 27.7741L32.9264 27.7838L32.9793 27.7887L33.0277 27.7983H33.0759L33.1288 27.8031H33.1769H33.2347L33.2876 27.7983L33.3361 27.7887L33.3793 27.7789L33.4226 27.7693L33.4613 27.7548L33.4949 27.7354L33.5336 27.7064L33.5624 27.6725L33.5818 27.6337L33.5963 27.5902L33.6011 27.5418V27.5321L33.5963 27.474L33.5769 27.4256L33.5527 27.3918L33.5191 27.3627L33.4804 27.3337L33.4419 27.3143L33.3987 27.295L33.3503 27.2756L33.2925 27.2515L33.2589 27.2417L33.2205 27.2321L33.1769 27.2175L33.1336 27.2078L33.0855 27.1933L33.0371 27.1836L32.9842 27.1691L32.936 27.1595L32.8831 27.1449L32.835 27.1353L32.7865 27.1208L32.7385 27.111L32.6903 27.0965L32.6468 27.082L32.5987 27.0723L32.5554 27.0578L32.5121 27.0433L32.4686 27.0288L32.4156 27.0094L32.3675 26.99L32.3194 26.9707L32.271 26.9513L32.2277 26.9271L32.1796 26.9029L32.1409 26.8787L32.0976 26.8545L32.0591 26.8255L32.0204 26.8013L31.9869 26.7722L31.953 26.7384L31.9194 26.7045L31.8903 26.6706L31.8616 26.6367L31.8374 26.6029L31.8135 26.5641L31.7893 26.5206L31.7699 26.487L31.7554 26.4483L31.7412 26.4047L31.7267 26.366L31.7169 26.3176L31.7073 26.274L31.7024 26.2256L31.6976 26.1772L31.6927 26.124V26.0707V26.0611V26.0126L31.6976 25.9643L31.7024 25.9207L31.7073 25.8723L31.7169 25.8288L31.7267 25.7852L31.7412 25.7416L31.7508 25.6981L31.7699 25.6545L31.7893 25.6109L31.8086 25.5674L31.8326 25.5238L31.8567 25.4803L31.8855 25.4415L31.9146 25.4028L31.9482 25.3641L31.982 25.3303L32.0156 25.2915L32.0543 25.2576L32.0879 25.2334L32.1266 25.2044L32.1651 25.1753L32.2035 25.1511L32.2471 25.127L32.2904 25.1076L32.3336 25.0834L32.3772 25.0641L32.4253 25.0495L32.4734 25.0302L32.5169 25.0156L32.5554 25.0059L32.5987 24.9963L32.6422 24.9866L32.6903 24.9769L32.7336 24.9672L32.7817 24.9624L32.8302 24.9576L32.8783 24.9527L32.9264 24.9479H32.9745H33.0277H33.0807H33.1336L33.1866 24.9527L33.2395 24.9576H33.2876L33.3409 24.9624L33.389 24.9721L33.4419 24.9769L33.4901 24.9866L33.5336 24.9963L33.5818 25.0059L33.6299 25.0156L33.6731 25.0253L33.7215 25.0398L33.7648 25.0544L33.8081 25.0641L33.8565 25.0834L33.8998 25.0979L33.943 25.1172L33.9863 25.1366L34.0347 25.156L34.078 25.1802L34.1164 25.1996L34.16 25.2238L34.2033 25.2479L34.2417 25.2722L34.2852 25.3012L34.3237 25.3254L34.3624 25.3545L34.4009 25.3835L34.4393 25.4125L34.4105 25.4513L34.3863 25.49L34.3576 25.5287L34.3285 25.5674L34.2998 25.6109L34.2756 25.6497L34.2465 25.6884L34.2178 25.7271L34.1936 25.7658L34.1648 25.8046L34.1358 25.8433L34.1116 25.882L34.0828 25.9256L34.0537 25.9643L34.025 26.003L34.0008 26.0417L33.9721 26.0804L33.9334 26.0514L33.8901 26.0272L33.8516 26.003L33.8129 25.9739L33.7697 25.9546L33.7309 25.9304L33.6877 25.911L33.6492 25.8917L33.6057 25.8723L33.5672 25.853L33.524 25.8384L33.4853 25.8191L33.4323 25.8046L33.3842 25.79L33.3361 25.7755L33.2876 25.7658L33.2395 25.7562L33.1914 25.7464L33.1433 25.7416L33.0949 25.7368L33.0517 25.7319H33.0035H32.9457L32.8928 25.7416L32.8444 25.7513L32.8011 25.761L32.7627 25.7803L32.7288 25.7997L32.6855 25.8384L32.6564 25.882L32.6374 25.9256L32.6325 25.9739V25.9837L32.6374 26.0466L32.6613 26.0998L32.6807 26.1288L32.7143 26.1627L32.7578 26.1869L32.7963 26.2111L32.8444 26.2305L32.8976 26.2499L32.9554 26.2692L32.9938 26.2789L33.0323 26.2934L33.0759 26.303L33.1191 26.3176L33.1672 26.3273L33.2205 26.3418L33.2734 26.3563L33.3264 26.3708L33.3793 26.3805L33.4274 26.395L33.4804 26.4095L33.5288 26.4192L33.5769 26.4337L33.625 26.4483L33.6683 26.4628L33.7167 26.4773L33.76 26.4918L33.8033 26.5063L33.8565 26.5254L33.9046 26.5496L33.9527 26.569L34.0008 26.5932L34.0444 26.6174L34.0877 26.6416L34.1261 26.6658L34.1648 26.6948L34.2033 26.719L34.2417 26.7529L34.2804 26.7867L34.314 26.8255L34.3479 26.8594L34.3766 26.8981L34.4057 26.9416L34.4296 26.9803L34.4538 27.024L34.4732 27.0627L34.4877 27.1062L34.5019 27.1497L34.5116 27.1933L34.5213 27.2417L34.5309 27.2902L34.5358 27.3385L34.5406 27.3918V27.445V27.4547V27.5079L34.5358 27.5612ZM31.1566 28.5289H31.1082H31.0601H31.012H30.9639H30.9155H30.8674H30.8193H30.7712H30.7179H30.6698H30.6217H30.5736H30.5252H30.4771H30.429H30.3809H30.3324H30.2843H30.2362H30.1881H30.14H30.0916H30.0435H29.9954H29.9472H29.8988H29.8507H29.8026H29.7497H29.7013H29.6531H29.605H29.5569H29.5086H29.4604H29.4123H29.3641H29.3158H29.2677H29.2196H29.1714H29.123H29.0749H29.0268H28.9787H28.9303H28.8822H28.8292H28.7811H28.733H28.6846H28.6365H28.5883H28.5403H28.4919H28.4437H28.3956V28.4805V28.4321V28.3837V28.3355V28.2871V28.2387V28.1904V28.142V28.0936V28.0451V27.9968V27.9483V27.8999V27.8516V27.8031V27.7548V27.7064V27.658V27.6144V27.566V27.5176V27.4692V27.4208V27.3724V27.324V27.2756V27.2272V27.1788V27.1304V27.082V27.0336V26.9852V26.9368V26.8884V26.84V26.7916V26.7432V26.6948V26.6464V26.598V26.5496V26.5015V26.4531V26.4047V26.3563V26.3079V26.2595V26.2111V26.1627V26.1143V26.0659V26.0175V25.9691V25.9207V25.8771V25.8288V25.7803V25.7319V25.6836V25.6351V25.5868V25.5383V25.49V25.4415V25.3932V25.3447V25.2963V25.2479V25.1996V25.1511V25.1028V25.0544V25.0059H28.4437H28.4919H28.5403H28.5883H28.6365H28.6846H28.733H28.7811H28.8292H28.8774H28.9257H28.9739H29.0219H29.0701H29.1136H29.1618H29.2099H29.258H29.3064H29.3545H29.4026H29.4507H29.4991H29.5472H29.5953H29.6435H29.6919H29.74H29.7881H29.8362H29.8846H29.9328H29.9808H30.0289H30.0771H30.1255H30.1736H30.2217H30.2698H30.3182H30.3663H30.4144H30.4625H30.5062H30.5543H30.6024H30.6505H30.6989H30.747H30.7951H30.8432H30.8916H30.9397H30.9878H31.036H31.0843H31.1325H31.1806V25.0544V25.0979V25.1463V25.1947V25.2431V25.2867V25.3351V25.3835V25.427V25.4754V25.5238V25.5674V25.6158V25.6642V25.7126V25.7562V25.8046H31.1325H31.0843H31.036H30.9878H30.9397H30.8916H30.848H30.7999H30.7518H30.7037H30.6553H30.6072H30.5591H30.511H30.4625H30.4144H30.3663H30.3182H30.2698H30.2266H30.1784H30.1303H30.0819H30.0338H29.9857H29.9376H29.8892H29.8411H29.7929H29.7448H29.6964H29.6483H29.605H29.5569H29.5086H29.4604H29.4123H29.3641H29.3158V25.853V25.9013V25.9497V25.9981V26.0466V26.0901V26.1385V26.1869V26.2353V26.2837V26.3321V26.3805H29.3641H29.4123H29.4604H29.5086H29.5569H29.605H29.6531H29.7013H29.7448H29.7929H29.8411H29.8892H29.9376H29.9857H30.0338H30.0819H30.1303H30.1784H30.2266H30.2747H30.323H30.3711H30.4193H30.4674H30.5158H30.5639H30.6072H30.6553H30.7037H30.7518H30.7999H30.848H30.8964H30.9446H30.9927V26.4289V26.4724V26.5206V26.569V26.6125V26.6609V26.7093V26.7529V26.8013V26.8497V26.8981V26.9416V26.99V27.0384V27.082V27.1304H30.9446H30.8964H30.848H30.7999H30.7518H30.7037H30.6553H30.6072H30.5639H30.5158H30.4674H30.4193H30.3711H30.323H30.2747H30.2266H30.1784H30.1303H30.0819H30.0338H29.9857H29.9376H29.8892H29.8411H29.7929H29.7448H29.7013H29.6531H29.605H29.5569H29.5086H29.4604H29.4123H29.3641H29.3158V27.1788V27.2321V27.2804V27.3289V27.3821V27.4305V27.4789V27.5321V27.5805V27.6289V27.6821V27.7305H29.3641H29.4123H29.4604H29.5086H29.5569H29.605H29.6531H29.7013H29.7497H29.8026H29.8507H29.8988H29.9472H29.9954H30.0435H30.0916H30.14H30.1881H30.2362H30.2843H30.3324H30.3809H30.429H30.4771H30.5252H30.5736H30.6217H30.6698H30.7179H30.7712H30.8193H30.8674H30.9155H30.9639H31.012H31.0601H31.1082H31.1566H31.2048V27.7789V27.8225V27.8709V27.9193V27.9677V28.0113V28.0597V28.108V28.1517V28.2V28.2484V28.292V28.3401V28.3885V28.4369V28.4805V28.5289H31.1566ZM27.636 28.5289H27.5879H27.5398H27.4866H27.4385H27.3903H27.3422H27.2938H27.2457H27.1927H27.1446H27.0965H27.0481H27H26.9519H26.899H26.8505H26.8024H26.7543V28.4805V28.4321V28.3837V28.3353V28.2866V28.2382V28.1898V28.1413V28.093V28.0446V27.9962V27.9475V27.8991V27.8507V27.8023V27.7539V27.7052V27.6568V27.6084V27.56V27.5116V27.4632V27.4145V27.3662V27.3177V27.2693V27.2209V27.1725V27.1238V27.0754V27.027V26.9787V26.9303V26.8819V26.8332V26.7848V26.7364V26.688V26.6396V26.5909V26.5425V26.4941V26.4457L26.7301 26.4844L26.7014 26.5283L26.6771 26.567L26.6484 26.6057L26.6242 26.6492L26.5951 26.688L26.5713 26.7267L26.547 26.7705L26.5183 26.8093L26.4941 26.848L26.4651 26.8867L26.4412 26.9306L26.4121 26.9693L26.3882 27.008L26.364 27.0515L26.3349 27.0905L26.311 27.1293L26.282 27.1728L26.2581 27.2116L26.2291 27.2503L26.2051 27.2941L26.1809 27.3329L26.1519 27.3716L26.128 27.4151L26.0989 27.4541L26.075 27.4928L26.046 27.5316L26.0217 27.5751L25.9978 27.6141L25.9688 27.6528L25.9449 27.6964L25.9159 27.7351L25.8917 27.7738L25.8629 27.8177L25.8387 27.8564H25.8196L25.7906 27.8128L25.7664 27.7738L25.7376 27.7302L25.7134 27.6915L25.6847 27.648L25.6605 27.609L25.6318 27.5654L25.6075 27.5267L25.5785 27.4832L25.5546 27.4444L25.5255 27.4006L25.5017 27.3619L25.4726 27.3183L25.4484 27.2796L25.4196 27.2357L25.3954 27.197L25.3667 27.1535L25.3376 27.1148L25.3135 27.0709L25.2847 27.0322L25.2605 26.9886L25.2317 26.9499L25.2075 26.9061L25.1788 26.8673L25.1546 26.8238L25.1255 26.7851L25.1016 26.7415L25.0726 26.7025L25.0487 26.659L25.0196 26.6202L24.9954 26.5766L24.9667 26.538L24.9424 26.4941L24.9137 26.4554V26.5038V26.5522V26.6006V26.6492V26.6977V26.746V26.7945V26.8429V26.8915V26.94V26.9835V27.0319V27.0803V27.1287V27.1774V27.2258V27.2742V27.3225V27.371V27.4194V27.468V27.5165V27.5649V27.6133V27.6617V27.7101V27.7588V27.8071V27.8555V27.9039V27.9523V28.001V28.0446V28.093V28.1413V28.1898V28.2382V28.2866V28.3353V28.3837V28.4321V28.4805V28.5289H24.8656H24.8172H24.7691H24.721H24.6729H24.6245H24.5763H24.5282H24.4801H24.4317H24.3836H24.3355H24.2874H24.239H24.1909H24.1427H24.0946H24.0462H23.9981V28.4805V28.4321V28.3837V28.3355V28.2871V28.2387V28.1904V28.142V28.0936V28.0451V27.9968V27.9483V27.8999V27.8516V27.8031V27.7548V27.7064V27.658V27.6144V27.566V27.5176V27.4692V27.4208V27.3724V27.324V27.2756V27.2272V27.1788V27.1304V27.082V27.0336V26.9852V26.9368V26.8884V26.84V26.7916V26.7432V26.6948V26.6464V26.598V26.5496V26.5015V26.4531V26.4047V26.3563V26.3079V26.2595V26.2111V26.1627V26.1143V26.0659V26.0175V25.9691V25.9207V25.8771V25.8288V25.7803V25.7319V25.6836V25.6351V25.5868V25.5383V25.49V25.4415V25.3932V25.3447V25.2963V25.2479V25.1996V25.1511V25.1028V25.0544V25.0059H24.0462H24.0946H24.1379H24.186H24.2341H24.2825H24.3258H24.3739H24.4223H24.4704H24.5137H24.5618H24.6102H24.6583H24.7016H24.7497H24.7981H24.8463H24.8895H24.9376H24.986L25.01 25.0447L25.0341 25.0882L25.0629 25.1266L25.0871 25.1702L25.1113 25.2089L25.1352 25.2525L25.1594 25.2909L25.1882 25.3345L25.2123 25.3732L25.2366 25.412L25.2605 25.4552L25.2847 25.494L25.3135 25.5375L25.3376 25.5762L25.3618 25.6195L25.3857 25.6582L25.4148 25.6969L25.439 25.7402L25.4629 25.7789L25.4871 25.8225L25.511 25.8612L25.5401 25.9045L25.5643 25.9432L25.5881 25.9867L25.6124 26.0252L25.6363 26.0639L25.6653 26.1074L25.6895 26.1462L25.7134 26.1898L25.7376 26.2282L25.7615 26.2718L25.7906 26.3105L25.8148 26.3537L25.8387 26.3925L25.8629 26.3537L25.8871 26.3105L25.9159 26.2718L25.94 26.2282L25.964 26.1898L25.9882 26.1462L26.0169 26.1074L26.0411 26.0639L26.0654 26.0252L26.0892 25.9867L26.1183 25.9432L26.1422 25.9045L26.1664 25.8612L26.1906 25.8225L26.2193 25.7789L26.2435 25.7402L26.2678 25.6969L26.2916 25.6582L26.3159 25.6195L26.3446 25.5762L26.3688 25.5375L26.393 25.494L26.417 25.4552L26.446 25.412L26.4699 25.3732L26.4941 25.3345L26.5183 25.2909L26.547 25.2525L26.5713 25.2089L26.5951 25.1702L26.6194 25.1266L26.6484 25.0882L26.6723 25.0447L26.6965 25.0059H26.7446H26.7928H26.8363H26.8844H26.9325H26.9806H27.0242H27.0724H27.1204H27.1686H27.2121H27.2602H27.3083H27.3565H27.4H27.4481H27.4963H27.5444H27.5879H27.636H27.6841V25.0544V25.1028V25.1511V25.1996V25.2479V25.2963V25.3447V25.3932V25.4415V25.49V25.5383V25.5868V25.6351V25.6836V25.7319V25.7803V25.8288V25.8771V25.9207V25.9691V26.0175V26.0659V26.1143V26.1627V26.2111V26.2595V26.3079V26.3563V26.4047V26.4531V26.5015V26.5496V26.598V26.6464V26.6948V26.7432V26.7916V26.84V26.8884V26.9368V26.9852V27.0336V27.082V27.1304V27.1788V27.2272V27.2756V27.324V27.3724V27.4208V27.4692V27.5176V27.566V27.6144V27.658V27.7064V27.7548V27.8031V27.8516V27.8999V27.9483V27.9968V28.0451V28.0936V28.142V28.1904V28.2387V28.2871V28.3355V28.3837V28.4321V28.4805V28.5289H27.636ZM22.0453 27.0772L22.0308 27.0333L22.0118 26.9849L21.9924 26.9414L21.9779 26.8975L21.9588 26.854L21.9395 26.8055L21.9249 26.7617L21.9055 26.7181L21.8865 26.6746L21.8719 26.6308L21.8526 26.5824L21.8384 26.5388L21.819 26.495L21.7996 26.4514L21.7851 26.4078L21.766 26.3592L21.7467 26.3156L21.7322 26.272L21.7128 26.2282L21.6937 26.1798L21.6792 26.136L21.6598 26.0924L21.6408 26.136L21.6263 26.1798L21.6069 26.2282L21.5876 26.272L21.5733 26.3156L21.554 26.3592L21.5346 26.4078L21.5155 26.4514L21.501 26.495L21.4816 26.5388L21.4623 26.5824L21.448 26.6308L21.4287 26.6746L21.4093 26.7181L21.3948 26.7617L21.3757 26.8055L21.3563 26.854L21.337 26.8975L21.3228 26.9414L21.3034 26.9849L21.284 27.0333L21.2695 27.0772L21.2505 27.1208H21.2986H21.3467H21.3948H21.4432H21.4913H21.5394H21.5876H21.636H21.6792H21.7273H21.7757H21.8238H21.8719H21.9201H21.9682H22.0166H22.0647L22.0453 27.0772ZM23.5586 28.5289H23.5102H23.4668H23.4188H23.3704H23.3223H23.2741H23.2309H23.1824H23.1343H23.0862H23.0381H22.9897H22.9464H22.8983H22.8502H22.8018H22.7537H22.7104H22.6623H22.6139L22.5948 28.4853L22.5803 28.4417L22.561 28.3982L22.5416 28.3498L22.5273 28.3065L22.508 28.263L22.4886 28.2194L22.4744 28.1758L22.455 28.1323L22.4357 28.0887L22.4212 28.0451L22.4021 27.9968L22.3827 27.9532L22.3682 27.9096L22.3488 27.8661H22.3007H22.2526H22.2045H22.1564H22.1128H22.0647H22.0166H21.9682H21.9201H21.8719H21.8238H21.7757H21.7273H21.6792H21.636H21.5876H21.5394H21.4913H21.4432H21.3948H21.3467H21.2986H21.2505H21.2024H21.1587H21.1107H21.0625H21.0141H20.966L20.947 27.9096L20.9324 27.9532L20.9131 27.9968L20.8937 28.0451L20.8795 28.0887L20.8602 28.1323L20.8408 28.1758L20.8263 28.2194L20.8072 28.263L20.7878 28.3065L20.7733 28.3498L20.7542 28.3982L20.7349 28.4417L20.7203 28.4853L20.701 28.5289H20.6528H20.6047H20.5566H20.5082H20.4601H20.4072H20.3591H20.3109H20.2625H20.2144H20.1663H20.1182H20.0698H20.0217H19.9736H19.9206H19.8722H19.8241H19.776H19.7279L19.7469 28.4853L19.7663 28.4417L19.7856 28.3982L19.8047 28.3498L19.8193 28.3065L19.8386 28.263L19.858 28.2194L19.877 28.1758L19.8964 28.1323L19.9158 28.0839L19.9348 28.0403L19.9542 27.9968L19.9687 27.9532L19.9881 27.9096L20.0071 27.8661L20.0265 27.8177L20.0458 27.7741L20.0649 27.7305L20.0843 27.687L20.1037 27.6434L20.1182 27.5999L20.1372 27.5514L20.1566 27.5079L20.176 27.4644L20.1951 27.4208L20.2144 27.3772L20.2338 27.3337L20.2529 27.2852L20.2674 27.2417L20.2868 27.1982L20.3061 27.1546L20.3252 27.111L20.3445 27.0675L20.3639 27.0191L20.383 26.9755L20.4023 26.932L20.4168 26.8884L20.4362 26.8449L20.4553 26.8013L20.4746 26.7529L20.494 26.7093L20.5131 26.6658L20.5324 26.6222L20.5518 26.5787L20.5663 26.5351L20.5854 26.4918L20.6047 26.4434L20.6241 26.3999L20.6432 26.3563L20.6625 26.3127L20.6819 26.2692L20.701 26.2256L20.7155 26.1772L20.7349 26.1337L20.7542 26.0901L20.7733 26.0466L20.7927 26.003L20.812 25.9594L20.8311 25.911L20.8504 25.8675L20.865 25.8239L20.8843 25.7803L20.9034 25.7368L20.9227 25.6932L20.9421 25.6448L20.9612 25.6013L20.9805 25.5577L20.9999 25.5141L21.0141 25.4706L21.0335 25.427L21.0529 25.3786L21.0723 25.3351L21.0913 25.2915L21.1107 25.2479L21.13 25.2044L21.1491 25.1609L21.1637 25.1124L21.183 25.0689L21.2024 25.0253L21.2214 24.9817H21.2695H21.3131H21.3612H21.4093H21.4577H21.501H21.5491H21.5972H21.6456H21.6889H21.737H21.7851H21.8335H21.8768H21.9249H21.973H22.0214H22.0647H22.1128L22.1322 25.0253L22.1515 25.0689L22.1706 25.1124L22.19 25.1609L22.2045 25.2044L22.2236 25.2479L22.2429 25.2915L22.2623 25.3351L22.2816 25.3786L22.3007 25.427L22.3201 25.4706L22.3395 25.5141L22.3537 25.5577L22.373 25.6013L22.3924 25.6448L22.4118 25.6932L22.4309 25.7368L22.4502 25.7803L22.4696 25.8239L22.4886 25.8675L22.5031 25.911L22.5225 25.9594L22.5416 26.003L22.561 26.0466L22.5803 26.0901L22.5997 26.1337L22.6187 26.1772L22.6381 26.2256L22.6526 26.2692L22.6717 26.3127L22.691 26.3563L22.7104 26.3999L22.7298 26.4434L22.7488 26.4918L22.7682 26.5351L22.7875 26.5787L22.8018 26.6222L22.8211 26.6658L22.8405 26.7093L22.8596 26.7529L22.8789 26.8013L22.8983 26.8449L22.9177 26.8884L22.9368 26.932L22.9513 26.9755L22.9706 27.0191L22.9897 27.0675L23.009 27.111L23.0284 27.1546L23.0477 27.1982L23.0669 27.2417L23.0862 27.2852L23.1007 27.3337L23.1198 27.3772L23.1391 27.4208L23.1585 27.4644L23.1776 27.5079L23.197 27.5514L23.2163 27.5999L23.2357 27.6434L23.2499 27.687L23.2693 27.7305L23.2887 27.7741L23.3077 27.8177L23.3271 27.8661L23.3464 27.9096L23.3658 27.9532L23.3848 27.9968L23.3994 28.0403L23.4188 28.0839L23.4378 28.1323L23.4572 28.1758L23.4765 28.2194L23.4956 28.263L23.5149 28.3065L23.5343 28.3498L23.5489 28.3982L23.5679 28.4417L23.5873 28.4853L23.6066 28.5289H23.5586ZM19.3373 28.079L19.2986 28.108L19.2649 28.1323L19.2262 28.1613L19.1878 28.1855L19.1494 28.2145L19.1107 28.2387L19.0722 28.263L19.0286 28.2871L18.9853 28.3113L18.9421 28.3355L18.8985 28.3546L18.8552 28.3788L18.8071 28.3982L18.7639 28.4175L18.7155 28.4369L18.6722 28.4562L18.6289 28.4708L18.5854 28.4853L18.5421 28.4999L18.494 28.5143L18.4507 28.5289L18.4023 28.5386L18.359 28.5482L18.3109 28.5579L18.2625 28.5676L18.2144 28.5724L18.1614 28.5773L18.1133 28.5821L18.0604 28.5869L18.0119 28.5918L17.959 28.5966H17.9061H17.8531H17.8002H17.7517L17.7036 28.5918L17.6507 28.5869L17.6026 28.5821L17.5545 28.5773L17.506 28.5724L17.4579 28.5628L17.4098 28.553L17.3665 28.5434L17.3182 28.5337L17.2749 28.5192L17.2268 28.5095L17.1832 28.4949L17.1399 28.4756L17.0966 28.4611L17.0486 28.4417L17.005 28.4224L16.9617 28.4031L16.9185 28.3837L16.8748 28.3595L16.8365 28.3355L16.7932 28.3113L16.7545 28.2871L16.716 28.263L16.6773 28.2339L16.6389 28.2049L16.6004 28.1758L16.5665 28.1468L16.533 28.1178L16.4991 28.0839L16.4655 28.0549L16.4316 28.021L16.398 27.9871L16.3689 27.9532L16.3402 27.9145L16.3111 27.8806L16.2869 27.8419L16.2582 27.8031L16.234 27.7645L16.2101 27.7257L16.1859 27.6821L16.1617 27.6434L16.1426 27.5999L16.1233 27.5563L16.1039 27.5127L16.0848 27.4692L16.0703 27.4305L16.0509 27.3869L16.0413 27.3433L16.027 27.2998L16.0173 27.2515L16.0028 27.2078L15.9932 27.1595L15.9883 27.1159L15.9786 27.0675L15.9738 27.024L15.9689 26.9755L15.9644 26.9271L15.9596 26.8787V26.8255V26.7771V26.7674V26.719L15.9644 26.6658V26.6174L15.9689 26.569L15.9738 26.5157L15.9835 26.4676L15.9883 26.4192L15.998 26.3756L16.0125 26.3273L16.0222 26.2789L16.0364 26.2353L16.0509 26.1869L16.0654 26.1433L16.0848 26.0949L16.1039 26.0514L16.1233 26.0078L16.1426 25.9643L16.1617 25.9207L16.1859 25.8771L16.2101 25.8384L16.234 25.7997L16.2582 25.761L16.2824 25.7223L16.3111 25.6836L16.3402 25.6448L16.3689 25.6061L16.398 25.5722L16.4316 25.5383L16.4606 25.5044L16.4943 25.4706L16.5281 25.4367L16.5617 25.4077L16.6004 25.3738L16.634 25.3447L16.6725 25.3157L16.7112 25.2915L16.7496 25.2625L16.7884 25.2383L16.8267 25.2141L16.87 25.1899L16.9136 25.1657L16.9569 25.1415L17.0001 25.1221L17.0437 25.1028L17.0918 25.0785L17.1303 25.0641L17.1784 25.0495L17.222 25.0302L17.2652 25.0205L17.3085 25.0059L17.3568 24.9963L17.4001 24.9817L17.4482 24.9721L17.4964 24.9672L17.5448 24.9576L17.5929 24.9527L17.641 24.9479L17.6891 24.943L17.7375 24.9382H17.7905H17.8386H17.8915H17.9445L17.9977 24.943L18.0507 24.9479H18.0988L18.1469 24.9527L18.1999 24.9624L18.2434 24.9672L18.2915 24.9769L18.3397 24.9866L18.3832 24.9963L18.4264 25.0059L18.4698 25.0156L18.5134 25.0302L18.5566 25.0398L18.595 25.0544L18.6386 25.0689L18.6819 25.0882L18.7251 25.1076L18.7687 25.127L18.812 25.1511L18.8552 25.1705L18.894 25.1947L18.9372 25.2189L18.9757 25.2431L19.0193 25.2673L19.0577 25.2963L19.0961 25.3206L19.1348 25.3496L19.1733 25.3786L19.212 25.4125L19.2504 25.4415L19.2214 25.4803L19.1878 25.5141L19.1588 25.5529L19.1252 25.5916L19.0961 25.6303L19.0674 25.6642L19.0335 25.7029L19.0047 25.7416L18.9757 25.7755L18.9421 25.8143L18.9131 25.853L18.8794 25.8917L18.8504 25.9256L18.8217 25.9643L18.7878 26.003L18.759 26.0417L18.7251 26.0756L18.6964 26.1143L18.6577 26.0853L18.6192 26.0514L18.5805 26.0272L18.5421 25.9981L18.5036 25.9739L18.4649 25.9497L18.4264 25.9256L18.3832 25.9013L18.3445 25.882L18.3061 25.8626L18.2673 25.8481L18.224 25.8336L18.1808 25.8191L18.1372 25.8094L18.0891 25.7997L18.041 25.79L17.9929 25.7852L17.9399 25.7803L17.8867 25.7755H17.8337H17.7856L17.7375 25.7803L17.694 25.7852L17.6459 25.7949L17.6026 25.8046L17.559 25.8191L17.5158 25.8336L17.4725 25.853L17.4292 25.8723L17.3905 25.8965L17.3521 25.9207L17.3133 25.945L17.2797 25.9739L17.2458 26.003L17.2123 26.032L17.1832 26.0659L17.1496 26.0998L17.1206 26.1385L17.0966 26.1724L17.0724 26.2111L17.0486 26.2547L17.0243 26.2934L17.005 26.3369L16.9905 26.3805L16.9714 26.4241L16.9569 26.4724L16.9472 26.5206L16.9375 26.5641L16.9278 26.6174L16.923 26.6658L16.9185 26.7141V26.7674V26.7771V26.8255L16.923 26.8739L16.9278 26.9174L16.9327 26.9659L16.9423 27.0094L16.952 27.053L16.9617 27.0965L16.9762 27.1401L16.9905 27.1788L17.0099 27.2272L17.0292 27.2708L17.0531 27.3143L17.0773 27.3531L17.1015 27.3918L17.1303 27.4305L17.1593 27.4644L17.1929 27.4983L17.222 27.5321L17.2555 27.5612L17.2943 27.5902L17.3327 27.6193L17.3711 27.6434L17.4098 27.6676L17.4531 27.687L17.4964 27.7064L17.5399 27.7257L17.588 27.7402L17.6361 27.7548L17.6846 27.7645L17.7327 27.7741L17.7808 27.7789L17.8337 27.7838H17.8867H17.9445L17.9977 27.7789L18.0507 27.7741L18.0988 27.7693L18.1469 27.7596L18.1953 27.7499L18.2434 27.7354L18.2867 27.7257L18.33 27.7064L18.3687 27.687L18.412 27.6676L18.4458 27.6483L18.4843 27.6241V27.5757V27.5273V27.4789V27.4305V27.3772V27.3289V27.2804V27.2321V27.1836H18.4362H18.3926H18.3445H18.2964H18.2483H18.2047H18.1566H18.1085H18.0604H18.0169H17.9687H17.9206H17.8724H17.8289H17.7808V27.1353V27.0917V27.0433V26.9949V26.9465V26.9029V26.8545V26.8061V26.7578V26.7141V26.6658V26.6174V26.569V26.5254V26.4773H17.8289H17.8773H17.9255H17.9735H18.0217H18.0698H18.1182H18.1663H18.2144H18.2625H18.3109H18.359H18.4071H18.4552H18.5036H18.5518H18.5999H18.648H18.6964H18.7445H18.7926H18.8407H18.8891H18.9372H18.9853H19.0335H19.0819H19.13H19.1781H19.2262H19.2746H19.3227H19.3709V26.5254V26.5738V26.6222V26.6658V26.7141V26.7626V26.8109V26.8594V26.9078V26.9513V26.9997V27.0481V27.0965V27.1449V27.1933V27.2417V27.2852V27.3337V27.3821V27.4305V27.4789V27.5273V27.5757V27.6193V27.6676V27.716V27.7645V27.8128V27.8612V27.9048V27.9532V28.0016V28.05L19.3373 28.079Z" fill="#111114"/>
<path d="M17.7876 17.0348H19.8759V15.4195H17.7876V12.1217H19.959V10.5064H16.0142V22.1646H19.9921V20.5492H17.7876V17.0348Z" fill="#111114"/>
<path d="M32.7456 17.3848V20.0163C32.7456 20.4826 32.53 20.699 32.0828 20.699H31.7511C31.2871 20.699 31.0715 20.4826 31.0715 20.0163V12.6547C31.0715 12.1884 31.2871 11.972 31.7511 11.972H32.0495C32.497 11.972 32.7126 12.1884 32.7126 12.6547V14.9366H34.4527V12.5548C34.4527 11.106 33.7565 10.4064 32.3149 10.4064H31.4528C30.011 10.4064 29.2981 11.1225 29.2981 12.5716V20.0994C29.2981 21.5485 30.011 22.2645 31.4528 22.2645H32.3313C33.7734 22.2645 34.4859 21.5485 34.4859 20.0994V17.3848H32.7456Z" fill="#111114"/>
<path d="M26.5872 22.1646H28.3609V10.5064H26.5872V22.1646Z" fill="#111114"/>
<path d="M24.0138 15.6859C24.0138 16.1523 23.7986 16.369 23.351 16.369H22.6216V12.0719H23.351C23.7986 12.0719 24.0138 12.2884 24.0138 12.7546V15.6859ZM23.6326 10.5064H20.8482V22.1646H22.6216V17.9342H23.6326C25.0746 17.9342 25.7872 17.2182 25.7872 15.7694V12.6715C25.7872 11.2224 25.0746 10.5064 23.6326 10.5064Z" fill="#111114"/>
<path fill-rule="evenodd" clip-rule="evenodd" d="M20.1979 32.706H30.3501L25.1683 34.4148L20.1979 32.706Z" fill="#111114"/>
</g>
</svg>
