<svg width="24" height="23" viewBox="0 0 24 23" fill="none" xmlns="http://www.w3.org/2000/svg">
<path fill-rule="evenodd" clip-rule="evenodd" d="M20.8339 13.4897C20.5105 14.8267 19.8847 16.0732 19.0038 17.135C18.1228 18.1968 17.0099 19.0462 15.749 19.6187L14.2857 17.9746L11.786 20.4528C10.371 20.436 8.97907 20.0956 7.71852 19.4582C6.45797 18.8208 5.36284 17.9035 4.51841 16.7778C4.78667 16.8504 5.05494 16.8987 5.3354 16.9229C5.7378 16.9229 6.18897 16.7899 6.18897 16.1009V9.40374C6.19517 9.23127 6.16034 9.05977 6.08732 8.90312C6.01429 8.74646 5.90511 8.60903 5.7686 8.50194C5.63209 8.39485 5.47207 8.3211 5.3015 8.28666C5.13092 8.25222 4.95456 8.25804 4.78667 8.30367C3.62825 8.56962 2.7137 11.4226 2.7137 11.4226C2.6847 9.22381 3.46272 7.08955 4.90289 5.41718C6.34306 3.74481 8.34723 2.64831 10.5422 2.33185C9.28623 3.05717 8.59118 4.2056 8.59118 5.17269C8.59118 6.74422 9.53011 6.5508 9.81057 6.32112V15.3635C9.94118 15.6759 10.1786 15.9327 10.4812 16.0888C10.6701 16.1842 10.879 16.2339 11.0909 16.2339C12.0543 16.2339 13.2858 15.1459 13.2858 15.1459V7.83221C13.2621 7.44116 13.1473 7.06089 12.9506 6.72114C12.7538 6.38139 12.4804 6.09139 12.1518 5.87384C12.1518 5.87384 13.2005 5.69251 14.0175 6.30903C15.4468 4.61638 17.4499 3.49883 19.6511 3.16597C19.6511 3.16597 16.9562 5.25731 16.9562 8.07398C16.9562 10.1653 17.005 15.2788 17.005 15.2788C18.0049 16.2339 19.4926 14.8437 20.8339 13.4897Z" fill="white"/>
</svg>
